<svg width="512" height="512" viewBox="0 0 512 512" fill="none" xmlns="http://www.w3.org/2000/svg">
<path fill-rule="evenodd" clip-rule="evenodd" d="M512 256C512 397.385 397.385 512 256 512C114.615 512 0 397.385 0 256C0 114.615 114.615 0 256 0C397.385 0 512 114.615 512 256ZM130.894 359.248L127.609 369.036L117.485 399.215L149.833 388.874L158.971 385.953L166.968 391.251C192.565 408.208 223.071 418 256.046 418C345.344 418 418 345.311 418 256C418 166.689 345.344 94 256.046 94H255.954C166.655 94 94 166.668 94 256C94 291.451 105.411 324.253 124.816 350.902L130.894 359.248ZM109.596 422.734L85.9668 430.288L93.8564 406.769L108.648 362.675C86.8311 332.713 74 295.812 74 256C74 155.627 155.604 74 255.954 74H256.046C356.396 74 438 155.65 438 256C438 356.35 356.396 438 256.046 438C219.031 438 184.701 426.989 155.923 407.925L109.596 422.734ZM326.227 356.691C340.127 353.688 357.554 343.405 361.944 331.006C366.335 318.584 366.335 308.006 365.061 305.753C364.031 303.966 361.599 302.795 357.966 301.045C357.021 300.591 355.995 300.097 354.892 299.542C349.545 296.881 323.542 284.027 318.628 282.321C313.805 280.501 309.21 281.138 305.569 286.279C300.451 293.446 295.423 300.726 291.351 305.116C288.143 308.529 282.91 308.961 278.52 307.141C278.04 306.941 277.491 306.72 276.876 306.471C269.925 303.663 254.505 297.435 235.841 280.819C220.098 266.805 209.405 249.356 206.312 244.124C203.274 238.875 205.894 235.797 208.315 232.952L208.45 232.794C209.904 230.995 211.318 229.476 212.735 227.97C213.935 226.696 215.137 225.431 216.367 224.013L216.853 223.454C219.238 220.71 220.658 219.078 222.259 215.664C224.079 212.137 222.782 208.497 221.485 205.812C220.597 203.938 215.116 190.642 210.394 179.187C208.353 174.234 206.453 169.625 205.128 166.432C201.603 157.992 198.918 157.674 193.571 157.446L193.086 157.422C191.393 157.335 189.528 157.241 187.475 157.241C180.513 157.241 173.256 159.289 168.865 163.771L168.386 164.258C162.77 169.971 150.255 182.697 150.255 208.065C150.255 233.487 168.297 258.09 171.629 262.633L171.868 262.96C172.069 263.224 172.447 263.772 172.998 264.57C179.812 274.437 212.996 322.494 262.481 342.995C304.296 360.331 316.717 358.715 326.227 356.691Z" fill="#323232"/>
</svg>
