<svg width="242" height="159" viewBox="0 0 242 159" fill="none" xmlns="http://www.w3.org/2000/svg">
<path d="M59.0186 52.3262C59.0186 58.5664 57.8613 64.0889 55.5469 68.8936C53.2324 73.6982 49.9365 77.4043 45.6592 80.0117C41.4111 82.5898 36.5625 83.8789 31.1133 83.8789C25.6641 83.8789 20.8301 82.6338 16.6113 80.1436C12.3926 77.624 9.09668 74.0352 6.72363 69.377C4.37988 64.7188 3.14941 59.3721 3.03223 53.3369V49.7334C3.03223 43.4639 4.1748 37.9414 6.45996 33.166C8.77441 28.3613 12.0703 24.6553 16.3477 22.0479C20.6543 19.4404 25.5469 18.1367 31.0254 18.1367C36.4453 18.1367 41.2793 19.4258 45.5273 22.0039C49.7754 24.582 53.0713 28.2588 55.415 33.0342C57.7881 37.7803 58.9893 43.2295 59.0186 49.3818V52.3262ZM43.3301 49.6455C43.3301 43.2881 42.2607 38.4688 40.1221 35.1875C38.0127 31.877 34.9805 30.2217 31.0254 30.2217C23.291 30.2217 19.2041 36.0225 18.7646 47.624L18.7207 52.3262C18.7207 58.5957 19.7607 63.415 21.8408 66.7842C23.9209 70.1533 27.0117 71.8379 31.1133 71.8379C35.0098 71.8379 38.0127 70.1826 40.1221 66.8721C42.2314 63.5615 43.3008 58.8008 43.3301 52.5898V49.6455ZM76.8006 23.6299V35.4512H84.6229V45.7344H76.8006V67.4873C76.8006 69.2744 77.1229 70.5195 77.7674 71.2227C78.4119 71.9258 79.6863 72.2773 81.5906 72.2773C83.0555 72.2773 84.2859 72.1895 85.282 72.0137V82.6045C82.616 83.4541 79.8328 83.8789 76.9324 83.8789C71.8348 83.8789 68.0701 82.6777 65.6385 80.2754C63.2068 77.873 61.991 74.2256 61.991 69.333V45.7344H55.9266V35.4512H61.991V23.6299H76.8006ZM113.674 83C113.147 82.0332 112.678 80.6123 112.268 78.7373C109.543 82.165 105.735 83.8789 100.842 83.8789C96.3598 83.8789 92.5512 82.5312 89.4164 79.8359C86.2816 77.1113 84.7143 73.6982 84.7143 69.5967C84.7143 64.4404 86.6186 60.5439 90.4272 57.9072C94.2357 55.2705 99.7729 53.9521 107.038 53.9521H111.609V51.4473C111.609 47.082 109.719 44.8994 105.94 44.8994C102.424 44.8994 100.666 46.6279 100.666 50.085H85.8568C85.8568 45.4854 87.8051 41.75 91.7016 38.8789C95.6273 36.0078 100.622 34.5723 106.687 34.5723C112.751 34.5723 117.541 36.0518 121.057 39.0107C124.573 41.9697 126.374 46.0273 126.462 51.1836V72.2334C126.521 76.5986 127.195 79.9385 128.484 82.2529V83H113.674ZM104.402 73.332C106.247 73.332 107.771 72.9365 108.972 72.1455C110.203 71.3545 111.081 70.4609 111.609 69.4648V61.8623H107.302C102.146 61.8623 99.5678 64.1768 99.5678 68.8057C99.5678 70.1533 100.022 71.252 100.93 72.1016C101.838 72.9219 102.996 73.332 104.402 73.332ZM149.361 65.3779L156.876 35.4512H172.477L156.964 83H141.847L126.334 35.4512H141.979L149.361 65.3779ZM188.916 83H174.062V35.4512H188.916V83ZM173.183 23.1904C173.183 21.0811 173.945 19.3525 175.468 18.0049C176.992 16.6572 178.969 15.9834 181.401 15.9834C183.833 15.9834 185.81 16.6572 187.334 18.0049C188.857 19.3525 189.619 21.0811 189.619 23.1904C189.619 25.2998 188.857 27.0283 187.334 28.376C185.81 29.7236 183.833 30.3975 181.401 30.3975C178.969 30.3975 176.992 29.7236 175.468 28.376C173.945 27.0283 173.183 25.2998 173.183 23.1904ZM192.611 58.7861C192.611 54.04 193.533 49.8213 195.379 46.1299C197.225 42.4092 199.876 39.5527 203.333 37.5605C206.79 35.5684 210.848 34.5723 215.506 34.5723C222.625 34.5723 228.236 36.7842 232.337 41.208C236.439 45.6025 238.489 51.5938 238.489 59.1816V59.709C238.489 67.1211 236.424 73.0098 232.293 77.375C228.192 81.7109 222.625 83.8789 215.594 83.8789C208.826 83.8789 203.392 81.8574 199.29 77.8145C195.189 73.7422 192.977 68.2344 192.654 61.291L192.611 58.7861ZM207.42 59.709C207.42 64.1035 208.109 67.3262 209.486 69.377C210.863 71.4277 212.899 72.4531 215.594 72.4531C220.867 72.4531 223.563 68.3955 223.68 60.2803V58.7861C223.68 50.2607 220.955 45.998 215.506 45.998C210.555 45.998 207.874 49.6748 207.464 57.0283L207.42 59.709Z" fill="#005AFF"/>
<path d="M84.1562 155V143.625H87.5156C88.5208 143.625 89.4115 143.849 90.1875 144.297C90.9688 144.745 91.5729 145.38 92 146.203C92.4271 147.026 92.6406 147.969 92.6406 149.031V149.602C92.6406 150.68 92.4245 151.628 91.9922 152.445C91.5651 153.263 90.9531 153.893 90.1562 154.336C89.3646 154.779 88.4557 155 87.4297 155H84.1562ZM86.1328 145.219V153.422H87.4219C88.4583 153.422 89.2526 153.099 89.8047 152.453C90.362 151.802 90.6458 150.87 90.6562 149.656V149.023C90.6562 147.789 90.388 146.846 89.8516 146.195C89.3151 145.544 88.5365 145.219 87.5156 145.219H86.1328ZM101.258 149.922H96.5859V153.422H102.047V155H94.6094V143.625H101.992V145.219H96.5859V148.359H101.258V149.922ZM105.633 150.773V155H103.656V143.625H108.008C109.279 143.625 110.286 143.956 111.031 144.617C111.781 145.279 112.156 146.154 112.156 147.242C112.156 148.357 111.789 149.224 111.055 149.844C110.326 150.464 109.302 150.773 107.984 150.773H105.633ZM105.633 149.188H108.008C108.711 149.188 109.247 149.023 109.617 148.695C109.987 148.362 110.172 147.883 110.172 147.258C110.172 146.643 109.984 146.154 109.609 145.789C109.234 145.419 108.719 145.229 108.062 145.219H105.633V149.188ZM122.211 143.625V151.227C122.211 152.435 121.823 153.393 121.047 154.102C120.276 154.805 119.247 155.156 117.961 155.156C116.659 155.156 115.625 154.81 114.859 154.117C114.094 153.419 113.711 152.453 113.711 151.219V143.625H115.68V151.234C115.68 151.995 115.872 152.576 116.258 152.977C116.643 153.378 117.211 153.578 117.961 153.578C119.482 153.578 120.242 152.776 120.242 151.172V143.625H122.211ZM132.547 145.219H129V155H127.039V145.219H123.523V143.625H132.547V145.219ZM139.477 152.352H135.07L134.148 155H132.094L136.391 143.625H138.164L142.469 155H140.406L139.477 152.352ZM135.625 150.758H138.922L137.273 146.039L135.625 150.758ZM143.766 155V143.625H147.125C148.13 143.625 149.021 143.849 149.797 144.297C150.578 144.745 151.182 145.38 151.609 146.203C152.036 147.026 152.25 147.969 152.25 149.031V149.602C152.25 150.68 152.034 151.628 151.602 152.445C151.174 153.263 150.562 153.893 149.766 154.336C148.974 154.779 148.065 155 147.039 155H143.766ZM145.742 145.219V153.422H147.031C148.068 153.422 148.862 153.099 149.414 152.453C149.971 151.802 150.255 150.87 150.266 149.656V149.023C150.266 147.789 149.997 146.846 149.461 146.195C148.924 145.544 148.146 145.219 147.125 145.219H145.742ZM163.297 149.609C163.297 150.724 163.104 151.703 162.719 152.547C162.333 153.385 161.781 154.031 161.062 154.484C160.349 154.932 159.526 155.156 158.594 155.156C157.672 155.156 156.849 154.932 156.125 154.484C155.406 154.031 154.849 153.388 154.453 152.555C154.062 151.721 153.865 150.76 153.859 149.672V149.031C153.859 147.922 154.055 146.943 154.445 146.094C154.841 145.245 155.396 144.596 156.109 144.148C156.828 143.695 157.651 143.469 158.578 143.469C159.505 143.469 160.326 143.693 161.039 144.141C161.758 144.583 162.312 145.224 162.703 146.062C163.094 146.896 163.292 147.867 163.297 148.977V149.609ZM161.32 149.016C161.32 147.755 161.081 146.789 160.602 146.117C160.128 145.445 159.453 145.109 158.578 145.109C157.724 145.109 157.055 145.445 156.57 146.117C156.091 146.784 155.846 147.729 155.836 148.953V149.609C155.836 150.859 156.078 151.826 156.562 152.508C157.052 153.19 157.729 153.531 158.594 153.531C159.469 153.531 160.141 153.198 160.609 152.531C161.083 151.865 161.32 150.891 161.32 149.609V149.016ZM175.805 150.18H171.227V155H169.25V143.625H176.477V145.219H171.227V148.602H175.805V150.18ZM184.695 149.922H180.023V153.422H185.484V155H178.047V143.625H185.43V145.219H180.023V148.359H184.695V149.922ZM187.094 155V143.625H190.453C191.458 143.625 192.349 143.849 193.125 144.297C193.906 144.745 194.51 145.38 194.938 146.203C195.365 147.026 195.578 147.969 195.578 149.031V149.602C195.578 150.68 195.362 151.628 194.93 152.445C194.503 153.263 193.891 153.893 193.094 154.336C192.302 154.779 191.393 155 190.367 155H187.094ZM189.07 145.219V153.422H190.359C191.396 153.422 192.19 153.099 192.742 152.453C193.299 151.802 193.583 150.87 193.594 149.656V149.023C193.594 147.789 193.326 146.846 192.789 146.195C192.253 145.544 191.474 145.219 190.453 145.219H189.07ZM204.195 149.922H199.523V153.422H204.984V155H197.547V143.625H204.93V145.219H199.523V148.359H204.195V149.922ZM210.773 150.617H208.57V155H206.594V143.625H210.594C211.906 143.625 212.919 143.919 213.633 144.508C214.346 145.096 214.703 145.948 214.703 147.062C214.703 147.823 214.518 148.461 214.148 148.977C213.784 149.487 213.273 149.88 212.617 150.156L215.172 154.898V155H213.055L210.773 150.617ZM208.57 149.031H210.602C211.268 149.031 211.789 148.865 212.164 148.531C212.539 148.193 212.727 147.732 212.727 147.148C212.727 146.539 212.552 146.068 212.203 145.734C211.859 145.401 211.344 145.229 210.656 145.219H208.57V149.031ZM222.945 152.352H218.539L217.617 155H215.562L219.859 143.625H221.633L225.938 155H223.875L222.945 152.352ZM219.094 150.758H222.391L220.742 146.039L219.094 150.758ZM229.211 153.422H234.375V155H227.234V143.625H229.211V153.422Z" fill="#005AFF"/>
<path d="M97.2588 124.135H124.109V136H81.834V72.0156H97.2588V124.135ZM133.138 136.879C125.843 136.879 119.939 134.711 115.428 130.375C110.916 126.01 108.66 120.341 108.66 113.368V112.138C108.66 107.274 109.554 102.982 111.341 99.2617C113.157 95.541 115.794 92.6699 119.251 90.6484C122.708 88.5977 126.809 87.5723 131.555 87.5723C138.235 87.5723 143.509 89.6523 147.376 93.8125C151.243 97.9434 153.177 103.715 153.177 111.127V116.884H123.733C124.261 119.55 125.418 121.645 127.205 123.168C128.992 124.691 131.306 125.453 134.148 125.453C138.836 125.453 142.498 123.812 145.135 120.531L151.902 128.529C150.056 131.078 147.434 133.114 144.036 134.638C140.667 136.132 137.034 136.879 133.138 136.879ZM131.468 98.998C127.132 98.998 124.554 101.869 123.733 107.611H138.675V106.469C138.733 104.096 138.133 102.265 136.873 100.976C135.613 99.6572 133.811 98.998 131.468 98.998ZM168.498 136H153.644V88.4512H168.498V136ZM152.765 76.1904C152.765 74.0811 153.527 72.3525 155.05 71.0049C156.574 69.6572 158.551 68.9834 160.983 68.9834C163.415 68.9834 165.392 69.6572 166.916 71.0049C168.439 72.3525 169.201 74.0811 169.201 76.1904C169.201 78.2998 168.439 80.0283 166.916 81.376C165.392 82.7236 163.415 83.3975 160.983 83.3975C158.551 83.3975 156.574 82.7236 155.05 81.376C153.527 80.0283 152.765 78.2998 152.765 76.1904ZM188.609 76.6299V88.4512H196.431V98.7344H188.609V120.487C188.609 122.274 188.931 123.52 189.576 124.223C190.22 124.926 191.495 125.277 193.399 125.277C194.864 125.277 196.094 125.189 197.09 125.014V135.604C194.424 136.454 191.641 136.879 188.741 136.879C183.643 136.879 179.878 135.678 177.447 133.275C175.015 130.873 173.799 127.226 173.799 122.333V98.7344H167.735V88.4512H173.799V76.6299H188.609ZM219.003 136.879C211.708 136.879 205.805 134.711 201.293 130.375C196.781 126.01 194.526 120.341 194.526 113.368V112.138C194.526 107.274 195.419 102.982 197.206 99.2617C199.023 95.541 201.659 92.6699 205.116 90.6484C208.573 88.5977 212.675 87.5723 217.421 87.5723C224.101 87.5723 229.374 89.6523 233.241 93.8125C237.109 97.9434 239.042 103.715 239.042 111.127V116.884H209.599C210.126 119.55 211.283 121.645 213.071 123.168C214.858 124.691 217.172 125.453 220.014 125.453C224.701 125.453 228.363 123.812 231 120.531L237.768 128.529C235.922 131.078 233.3 133.114 229.902 134.638C226.532 136.132 222.9 136.879 219.003 136.879ZM217.333 98.998C212.997 98.998 210.419 101.869 209.599 107.611H224.54V106.469C224.599 104.096 223.998 102.265 222.738 100.976C221.479 99.6572 219.677 98.998 217.333 98.998Z" fill="#0142B9"/>
</svg>
